<svg xmlns="http://www.w3.org/2000/svg" width="504" height="504" viewBox="0 0 504 504"><defs><clipPath id="logo-paper"><rect width="504" height="504" rx="252"/></clipPath></defs><rect width="504" height="504" rx="252" fill="#000000"/><g clip-path="url(#logo-paper)"><defs><path id="l-109kef8" d="M0.0360-0.1410L-0.0360-0.1410L-0.0360-0.3140L-0.2090-0.3140L-0.2090-0.3860L-0.0360-0.3860L-0.0360-0.5590L0.0360-0.5590L0.0360-0.3860L0.2090-0.3860L0.2090-0.3140L0.0360-0.3140"/><path id="l-y8v040" d="M0-0.2800Q-0.0280-0.2800-0.0490-0.3010Q-0.0700-0.3220-0.0700-0.3500Q-0.0700-0.3790-0.0490-0.3995Q-0.0280-0.4200 0-0.4200Q0.0290-0.4200 0.0495-0.3995Q0.0700-0.3790 0.0700-0.3500Q0.0700-0.3220 0.0495-0.3010Q0.0290-0.2800 0-0.2800"/><path id="l-o9yn4s" d="M0-0.3700Q-0.0280-0.3700-0.0490-0.3910Q-0.0700-0.4120-0.0700-0.4400Q-0.0700-0.4690-0.0490-0.4895Q-0.0280-0.5100 0-0.5100Q0.0290-0.5100 0.0495-0.4895Q0.0700-0.4690 0.0700-0.4400Q0.0700-0.4120 0.0495-0.3910Q0.0290-0.3700 0-0.3700M0 0.0140Q-0.0280 0.0140-0.0490-0.0070Q-0.0700-0.0280-0.0700-0.0560Q-0.0700-0.0850-0.0490-0.1055Q-0.0280-0.1260 0-0.1260Q0.0290-0.1260 0.0495-0.1055Q0.0700-0.0850 0.0700-0.0560Q0.0700-0.0280 0.0495-0.0070Q0.0290 0.0140 0 0.0140"/><path id="l-1q9ls40" d="M0.0360-0.1020L-0.0360-0.1020L-0.0360-0.2370L-0.0220-0.2820L-0.0340-0.2870L-0.0620-0.2370L-0.1500-0.1490L-0.2010-0.2000L-0.1130-0.2880L-0.0630-0.3160L-0.0680-0.3280L-0.1130-0.3140L-0.2480-0.3140L-0.2480-0.3860L-0.1130-0.3860L-0.0680-0.3720L-0.0630-0.3840L-0.1130-0.4120L-0.2010-0.5000L-0.1500-0.5510L-0.0620-0.4630L-0.0340-0.4130L-0.0220-0.4180L-0.0360-0.4630L-0.0360-0.5980L0.0360-0.5980L0.0360-0.4630L0.0220-0.4180L0.0340-0.4130L0.0620-0.4630L0.1500-0.5510L0.2010-0.5000L0.1130-0.4120L0.0630-0.3840L0.0680-0.3720L0.1130-0.3860L0.2480-0.3860L0.2480-0.3140L0.1130-0.3140L0.0680-0.3280L0.0630-0.3160L0.1130-0.2880L0.2010-0.2000L0.1500-0.1490L0.0620-0.2370L0.0340-0.2870L0.0220-0.2820L0.0360-0.2370"/><path id="l-1l3hmiw" d="M-0.1440 0L-0.2350 0L-0.0770-0.2480L-0.0770-0.2600L-0.2230-0.4960L-0.1340-0.4960L-0.0090-0.2900L0.0090-0.2900L0.1340-0.4960L0.2230-0.4960L0.0770-0.2600L0.0770-0.2480L0.2350 0L0.1440 0L0.0090-0.2180L-0.0090-0.2180"/><path id="l-opah6f" d="M-0.0540-0.1020L-0.1260-0.1020L-0.1260-0.2240L-0.2360-0.2240L-0.2360-0.2960L-0.1260-0.2960L-0.1260-0.4040L-0.2360-0.4040L-0.2360-0.4760L-0.1260-0.4760L-0.1260-0.5980L-0.0540-0.5980L-0.0540-0.4760L0.0540-0.4760L0.0540-0.5980L0.1260-0.5980L0.1260-0.4760L0.2360-0.4760L0.2360-0.4040L0.1260-0.4040L0.1260-0.2960L0.2360-0.2960L0.2360-0.2240L0.1260-0.2240L0.1260-0.1020L0.0540-0.1020L0.0540-0.2240L-0.0540-0.2240L-0.0540-0.1020M-0.0540-0.4040L-0.0540-0.2960L0.0540-0.2960L0.0540-0.4040"/></defs><g transform="scale(14.7059)" fill="#e8e1cf"><use href="#l-109kef8" x="5.304" y="8.102"/><use href="#l-109kef8" x="6.12" y="8.102"/><use href="#l-109kef8" x="6.936" y="8.102"/><use href="#l-109kef8" x="7.752" y="8.102"/><use href="#l-109kef8" x="8.568" y="8.102"/><use href="#l-109kef8" x="9.384" y="8.102"/><use href="#l-109kef8" x="10.2" y="8.102" fill="#cf8542"/><use href="#l-109kef8" x="11.016" y="8.102"/><use href="#l-y8v040" x="11.832" y="8.102"/><use href="#l-o9yn4s" x="22.44" y="8.102"/><use href="#l-109kef8" x="23.256" y="8.102" fill="#cf8542"/><use href="#l-109kef8" x="24.072" y="8.102"/><use href="#l-109kef8" x="24.888" y="8.102"/><use href="#l-109kef8" x="25.704" y="8.102"/><use href="#l-109kef8" x="26.52" y="8.102"/><use href="#l-109kef8" x="27.336" y="8.102"/><use href="#l-109kef8" x="28.152" y="8.102"/><use href="#l-o9yn4s" x="28.968" y="8.102"/><use href="#l-y8v040" x="4.488" y="8.918"/><use href="#l-1q9ls40" x="5.304" y="8.918"/><use href="#l-1l3hmiw" x="6.12" y="8.918"/><use href="#l-opah6f" x="6.936" y="8.918"/><use href="#l-opah6f" x="7.752" y="8.918"/><use href="#l-1l3hmiw" x="8.568" y="8.918" fill="#cf8542"/><use href="#l-1l3hmiw" x="9.384" y="8.918"/><use href="#l-1l3hmiw" x="10.2" y="8.918"/><use href="#l-1l3hmiw" x="11.016" y="8.918"/><use href="#l-109kef8" x="11.832" y="8.918"/><use href="#l-1l3hmiw" x="22.44" y="8.918" fill="#cf8542"/><use href="#l-opah6f" x="23.256" y="8.918"/><use href="#l-1l3hmiw" x="24.072" y="8.918"/><use href="#l-1l3hmiw" x="24.888" y="8.918"/><use href="#l-1l3hmiw" x="25.704" y="8.918"/><use href="#l-1l3hmiw" x="26.52" y="8.918"/><use href="#l-opah6f" x="27.336" y="8.918"/><use href="#l-1l3hmiw" x="28.152" y="8.918"/><use href="#l-1q9ls40" x="28.968" y="8.918"/><use href="#l-o9yn4s" x="6.936" y="9.734" fill="#cf8542"/><use href="#l-opah6f" x="7.752" y="9.734"/><use href="#l-opah6f" x="8.568" y="9.734"/><use href="#l-y8v040" x="9.384" y="9.734" fill="#cf8542"/><use href="#l-o9yn4s" x="11.016" y="9.734"/><use href="#l-1l3hmiw" x="11.832" y="9.734"/><use href="#l-o9yn4s" x="21.624" y="9.734"/><use href="#l-opah6f" x="22.44" y="9.734"/><use href="#l-opah6f" x="23.256" y="9.734"/><use href="#l-y8v040" x="24.072" y="9.734"/><use href="#l-1l3hmiw" x="26.52" y="9.734"/><use href="#l-1q9ls40" x="27.336" y="9.734"/><use href="#l-o9yn4s" x="6.936" y="10.55" fill="#cf8542"/><use href="#l-opah6f" x="7.752" y="10.55"/><use href="#l-1l3hmiw" x="8.568" y="10.55"/><use href="#l-109kef8" x="9.384" y="10.55" fill="#cf8542"/><use href="#l-1l3hmiw" x="11.832" y="10.55"/><use href="#l-109kef8" x="12.648" y="10.55" fill="#cf8542"/><use href="#l-1l3hmiw" x="21.624" y="10.55"/><use href="#l-1l3hmiw" x="22.44" y="10.55"/><use href="#l-opah6f" x="23.256" y="10.55"/><use href="#l-y8v040" x="24.072" y="10.55"/><use href="#l-y8v040" x="25.704" y="10.55" fill="#cf8542"/><use href="#l-opah6f" x="26.52" y="10.55"/><use href="#l-y8v040" x="27.336" y="10.55"/><use href="#l-o9yn4s" x="6.936" y="11.366"/><use href="#l-opah6f" x="7.752" y="11.366" fill="#cf8542"/><use href="#l-109kef8" x="8.568" y="11.366"/><use href="#l-1l3hmiw" x="9.384" y="11.366"/><use href="#l-109kef8" x="11.832" y="11.366"/><use href="#l-1l3hmiw" x="12.648" y="11.366"/><use href="#l-y8v040" x="20.808" y="11.366"/><use href="#l-opah6f" x="21.624" y="11.366"/><use href="#l-1q9ls40" x="22.44" y="11.366"/><use href="#l-opah6f" x="23.256" y="11.366"/><use href="#l-y8v040" x="24.072" y="11.366"/><use href="#l-y8v040" x="25.704" y="11.366"/><use href="#l-opah6f" x="26.52" y="11.366" fill="#cf8542"/><use href="#l-y8v040" x="27.336" y="11.366"/><use href="#l-o9yn4s" x="6.936" y="12.182"/><use href="#l-opah6f" x="7.752" y="12.182"/><use href="#l-y8v040" x="8.568" y="12.182"/><use href="#l-1l3hmiw" x="9.384" y="12.182"/><use href="#l-o9yn4s" x="10.2" y="12.182"/><use href="#l-y8v040" x="11.832" y="12.182"/><use href="#l-1l3hmiw" x="12.648" y="12.182"/><use href="#l-o9yn4s" x="13.464" y="12.182" fill="#cf8542"/><use href="#l-1q9ls40" x="20.808" y="12.182" fill="#cf8542"/><use href="#l-1l3hmiw" x="21.624" y="12.182"/><use href="#l-y8v040" x="22.44" y="12.182" fill="#cf8542"/><use href="#l-opah6f" x="23.256" y="12.182" fill="#cf8542"/><use href="#l-y8v040" x="24.072" y="12.182"/><use href="#l-y8v040" x="25.704" y="12.182"/><use href="#l-opah6f" x="26.52" y="12.182" fill="#cf8542"/><use href="#l-y8v040" x="27.336" y="12.182"/><use href="#l-o9yn4s" x="6.936" y="12.998"/><use href="#l-opah6f" x="7.752" y="12.998"/><use href="#l-y8v040" x="8.568" y="12.998"/><use href="#l-1q9ls40" x="9.384" y="12.998" fill="#cf8542"/><use href="#l-1l3hmiw" x="10.2" y="12.998"/><use href="#l-1q9ls40" x="12.648" y="12.998"/><use href="#l-1q9ls40" x="13.464" y="12.998"/><use href="#l-1l3hmiw" x="20.808" y="12.998"/><use href="#l-1q9ls40" x="21.624" y="12.998"/><use href="#l-y8v040" x="22.44" y="12.998" fill="#cf8542"/><use href="#l-opah6f" x="23.256" y="12.998" fill="#cf8542"/><use href="#l-y8v040" x="24.072" y="12.998"/><use href="#l-y8v040" x="25.704" y="12.998"/><use href="#l-opah6f" x="26.52" y="12.998"/><use href="#l-y8v040" x="27.336" y="12.998"/><use href="#l-o9yn4s" x="6.936" y="13.814" fill="#cf8542"/><use href="#l-opah6f" x="7.752" y="13.814"/><use href="#l-y8v040" x="8.568" y="13.814"/><use href="#l-y8v040" x="9.384" y="13.814"/><use href="#l-opah6f" x="10.2" y="13.814"/><use href="#l-o9yn4s" x="11.016" y="13.814"/><use href="#l-o9yn4s" x="12.648" y="13.814"/><use href="#l-opah6f" x="13.464" y="13.814"/><use href="#l-y8v040" x="14.28" y="13.814"/><use href="#l-109kef8" x="19.992" y="13.814"/><use href="#l-opah6f" x="20.808" y="13.814"/><use href="#l-y8v040" x="21.624" y="13.814"/><use href="#l-y8v040" x="22.44" y="13.814"/><use href="#l-opah6f" x="23.256" y="13.814"/><use href="#l-y8v040" x="24.072" y="13.814"/><use href="#l-y8v040" x="25.704" y="13.814"/><use href="#l-opah6f" x="26.52" y="13.814"/><use href="#l-y8v040" x="27.336" y="13.814"/><use href="#l-o9yn4s" x="6.936" y="14.63" fill="#cf8542"/><use href="#l-opah6f" x="7.752" y="14.63"/><use href="#l-y8v040" x="8.568" y="14.63"/><use href="#l-1q9ls40" x="10.2" y="14.63"/><use href="#l-1q9ls40" x="11.016" y="14.63"/><use href="#l-1l3hmiw" x="13.464" y="14.63" fill="#cf8542"/><use href="#l-109kef8" x="14.28" y="14.63"/><use href="#l-1l3hmiw" x="19.992" y="14.63"/><use href="#l-1l3hmiw" x="20.808" y="14.63"/><use href="#l-y8v040" x="22.44" y="14.63" fill="#cf8542"/><use href="#l-opah6f" x="23.256" y="14.63"/><use href="#l-y8v040" x="24.072" y="14.63"/><use href="#l-y8v040" x="25.704" y="14.63"/><use href="#l-opah6f" x="26.52" y="14.63"/><use href="#l-y8v040" x="27.336" y="14.63" fill="#cf8542"/><use href="#l-o9yn4s" x="6.936" y="15.446"/><use href="#l-opah6f" x="7.752" y="15.446"/><use href="#l-y8v040" x="8.568" y="15.446"/><use href="#l-o9yn4s" x="10.2" y="15.446"/><use href="#l-opah6f" x="11.016" y="15.446"/><use href="#l-y8v040" x="11.832" y="15.446"/><use href="#l-109kef8" x="13.464" y="15.446" fill="#cf8542"/><use href="#l-1l3hmiw" x="14.28" y="15.446"/><use href="#l-o9yn4s" x="19.176" y="15.446"/><use href="#l-opah6f" x="19.992" y="15.446"/><use href="#l-o9yn4s" x="20.808" y="15.446"/><use href="#l-y8v040" x="22.44" y="15.446"/><use href="#l-opah6f" x="23.256" y="15.446" fill="#cf8542"/><use href="#l-y8v040" x="24.072" y="15.446"/><use href="#l-y8v040" x="25.704" y="15.446"/><use href="#l-opah6f" x="26.52" y="15.446"/><use href="#l-y8v040" x="27.336" y="15.446" fill="#cf8542"/><use href="#l-o9yn4s" x="6.936" y="16.262"/><use href="#l-opah6f" x="7.752" y="16.262"/><use href="#l-y8v040" x="8.568" y="16.262"/><use href="#l-1l3hmiw" x="11.016" y="16.262"/><use href="#l-109kef8" x="11.832" y="16.262"/><use href="#l-1l3hmiw" x="14.28" y="16.262"/><use href="#l-109kef8" x="15.096" y="16.262" fill="#cf8542"/><use href="#l-1q9ls40" x="19.176" y="16.262"/><use href="#l-1l3hmiw" x="19.992" y="16.262"/><use href="#l-y8v040" x="22.44" y="16.262"/><use href="#l-opah6f" x="23.256" y="16.262" fill="#cf8542"/><use href="#l-y8v040" x="24.072" y="16.262"/><use href="#l-y8v040" x="25.704" y="16.262"/><use href="#l-opah6f" x="26.52" y="16.262" fill="#cf8542"/><use href="#l-o9yn4s" x="6.936" y="17.078"/><use href="#l-opah6f" x="7.752" y="17.078"/><use href="#l-y8v040" x="8.568" y="17.078"/><use href="#l-109kef8" x="11.016" y="17.078"/><use href="#l-1l3hmiw" x="11.832" y="17.078"/><use href="#l-109kef8" x="14.28" y="17.078" fill="#cf8542"/><use href="#l-1l3hmiw" x="15.096" y="17.078"/><use href="#l-y8v040" x="18.36" y="17.078"/><use href="#l-opah6f" x="19.176" y="17.078"/><use href="#l-109kef8" x="19.992" y="17.078"/><use href="#l-y8v040" x="22.44" y="17.078"/><use href="#l-opah6f" x="23.256" y="17.078"/><use href="#l-y8v040" x="24.072" y="17.078" fill="#cf8542"/><use href="#l-y8v040" x="25.704" y="17.078"/><use href="#l-opah6f" x="26.52" y="17.078"/><use href="#l-o9yn4s" x="6.936" y="17.894"/><use href="#l-opah6f" x="7.752" y="17.894" fill="#cf8542"/><use href="#l-y8v040" x="8.568" y="17.894"/><use href="#l-1l3hmiw" x="11.832" y="17.894"/><use href="#l-o9yn4s" x="12.648" y="17.894"/><use href="#l-y8v040" x="14.28" y="17.894" fill="#cf8542"/><use href="#l-opah6f" x="15.096" y="17.894"/><use href="#l-o9yn4s" x="15.912" y="17.894"/><use href="#l-1q9ls40" x="18.36" y="17.894"/><use href="#l-opah6f" x="19.176" y="17.894" fill="#cf8542"/><use href="#l-y8v040" x="19.992" y="17.894"/><use href="#l-y8v040" x="22.44" y="17.894"/><use href="#l-opah6f" x="23.256" y="17.894"/><use href="#l-y8v040" x="24.072" y="17.894"/><use href="#l-y8v040" x="25.704" y="17.894"/><use href="#l-opah6f" x="26.52" y="17.894" fill="#cf8542"/><use href="#l-o9yn4s" x="6.936" y="18.71"/><use href="#l-opah6f" x="7.752" y="18.71"/><use href="#l-y8v040" x="8.568" y="18.71"/><use href="#l-1q9ls40" x="11.832" y="18.71" fill="#cf8542"/><use href="#l-1l3hmiw" x="12.648" y="18.71"/><use href="#l-1q9ls40" x="15.096" y="18.71"/><use href="#l-1q9ls40" x="15.912" y="18.71"/><use href="#l-1l3hmiw" x="18.36" y="18.71" fill="#cf8542"/><use href="#l-1q9ls40" x="19.176" y="18.71" fill="#cf8542"/><use href="#l-y8v040" x="22.44" y="18.71" fill="#cf8542"/><use href="#l-opah6f" x="23.256" y="18.71"/><use href="#l-y8v040" x="24.072" y="18.71"/><use href="#l-y8v040" x="25.704" y="18.71"/><use href="#l-opah6f" x="26.52" y="18.71"/><use href="#l-o9yn4s" x="6.936" y="19.526"/><use href="#l-opah6f" x="7.752" y="19.526"/><use href="#l-y8v040" x="8.568" y="19.526" fill="#cf8542"/><use href="#l-y8v040" x="11.832" y="19.526"/><use href="#l-opah6f" x="12.648" y="19.526"/><use href="#l-o9yn4s" x="13.464" y="19.526"/><use href="#l-o9yn4s" x="15.096" y="19.526"/><use href="#l-opah6f" x="15.912" y="19.526" fill="#cf8542"/><use href="#l-y8v040" x="16.728" y="19.526"/><use href="#l-109kef8" x="17.544" y="19.526" fill="#cf8542"/><use href="#l-opah6f" x="18.36" y="19.526"/><use href="#l-o9yn4s" x="19.176" y="19.526"/><use href="#l-y8v040" x="22.44" y="19.526"/><use href="#l-opah6f" x="23.256" y="19.526"/><use href="#l-y8v040" x="24.072" y="19.526"/><use href="#l-y8v040" x="25.704" y="19.526" fill="#cf8542"/><use href="#l-opah6f" x="26.52" y="19.526"/><use href="#l-o9yn4s" x="6.936" y="20.342"/><use href="#l-opah6f" x="7.752" y="20.342"/><use href="#l-y8v040" x="8.568" y="20.342"/><use href="#l-1q9ls40" x="12.648" y="20.342"/><use href="#l-1q9ls40" x="13.464" y="20.342"/><use href="#l-1l3hmiw" x="15.912" y="20.342" fill="#cf8542"/><use href="#l-109kef8" x="16.728" y="20.342"/><use href="#l-1l3hmiw" x="17.544" y="20.342"/><use href="#l-1l3hmiw" x="18.36" y="20.342"/><use href="#l-y8v040" x="22.44" y="20.342"/><use href="#l-opah6f" x="23.256" y="20.342"/><use href="#l-y8v040" x="24.072" y="20.342"/><use href="#l-y8v040" x="25.704" y="20.342"/><use href="#l-opah6f" x="26.52" y="20.342"/><use href="#l-o9yn4s" x="6.936" y="21.158"/><use href="#l-opah6f" x="7.752" y="21.158"/><use href="#l-y8v040" x="8.568" y="21.158"/><use href="#l-o9yn4s" x="12.648" y="21.158"/><use href="#l-opah6f" x="13.464" y="21.158"/><use href="#l-y8v040" x="14.28" y="21.158"/><use href="#l-109kef8" x="15.912" y="21.158" fill="#cf8542"/><use href="#l-opah6f" x="16.728" y="21.158"/><use href="#l-opah6f" x="17.544" y="21.158" fill="#cf8542"/><use href="#l-o9yn4s" x="18.36" y="21.158"/><use href="#l-y8v040" x="22.44" y="21.158"/><use href="#l-opah6f" x="23.256" y="21.158"/><use href="#l-y8v040" x="24.072" y="21.158"/><use href="#l-y8v040" x="25.704" y="21.158"/><use href="#l-opah6f" x="26.52" y="21.158"/><use href="#l-o9yn4s" x="6.936" y="21.974"/><use href="#l-opah6f" x="7.752" y="21.974"/><use href="#l-y8v040" x="8.568" y="21.974"/><use href="#l-1l3hmiw" x="13.464" y="21.974"/><use href="#l-109kef8" x="14.28" y="21.974" fill="#cf8542"/><use href="#l-1l3hmiw" x="16.728" y="21.974"/><use href="#l-1l3hmiw" x="17.544" y="21.974"/><use href="#l-y8v040" x="22.44" y="21.974" fill="#cf8542"/><use href="#l-opah6f" x="23.256" y="21.974"/><use href="#l-y8v040" x="24.072" y="21.974"/><use href="#l-y8v040" x="25.704" y="21.974"/><use href="#l-opah6f" x="26.52" y="21.974"/><use href="#l-o9yn4s" x="6.936" y="22.79"/><use href="#l-opah6f" x="7.752" y="22.79"/><use href="#l-y8v040" x="8.568" y="22.79"/><use href="#l-109kef8" x="13.464" y="22.79"/><use href="#l-1l3hmiw" x="14.28" y="22.79"/><use href="#l-1l3hmiw" x="16.728" y="22.79" fill="#cf8542"/><use href="#l-109kef8" x="17.544" y="22.79"/><use href="#l-y8v040" x="22.44" y="22.79" fill="#cf8542"/><use href="#l-opah6f" x="23.256" y="22.79"/><use href="#l-y8v040" x="24.072" y="22.79"/><use href="#l-y8v040" x="25.704" y="22.79" fill="#cf8542"/><use href="#l-opah6f" x="26.52" y="22.79"/><use href="#l-o9yn4s" x="6.936" y="23.606"/><use href="#l-opah6f" x="7.752" y="23.606"/><use href="#l-y8v040" x="8.568" y="23.606"/><use href="#l-y8v040" x="13.464" y="23.606" fill="#cf8542"/><use href="#l-opah6f" x="14.28" y="23.606"/><use href="#l-o9yn4s" x="15.096" y="23.606" fill="#cf8542"/><use href="#l-o9yn4s" x="15.912" y="23.606" fill="#cf8542"/><use href="#l-opah6f" x="16.728" y="23.606"/><use href="#l-y8v040" x="17.544" y="23.606"/><use href="#l-y8v040" x="22.44" y="23.606"/><use href="#l-opah6f" x="23.256" y="23.606"/><use href="#l-y8v040" x="24.072" y="23.606"/><use href="#l-y8v040" x="25.704" y="23.606"/><use href="#l-opah6f" x="26.52" y="23.606"/><use href="#l-y8v040" x="27.336" y="23.606"/><use href="#l-o9yn4s" x="6.936" y="24.422"/><use href="#l-opah6f" x="7.752" y="24.422"/><use href="#l-y8v040" x="8.568" y="24.422" fill="#cf8542"/><use href="#l-1q9ls40" x="14.28" y="24.422"/><use href="#l-1l3hmiw" x="15.096" y="24.422" fill="#cf8542"/><use href="#l-1q9ls40" x="15.912" y="24.422"/><use href="#l-1q9ls40" x="16.728" y="24.422"/><use href="#l-y8v040" x="22.44" y="24.422"/><use href="#l-opah6f" x="23.256" y="24.422"/><use href="#l-y8v040" x="24.072" y="24.422"/><use href="#l-y8v040" x="25.704" y="24.422"/><use href="#l-opah6f" x="26.52" y="24.422"/><use href="#l-y8v040" x="27.336" y="24.422"/><use href="#l-y8v040" x="6.12" y="25.238"/><use href="#l-1l3hmiw" x="6.936" y="25.238" fill="#cf8542"/><use href="#l-opah6f" x="7.752" y="25.238"/><use href="#l-1l3hmiw" x="8.568" y="25.238"/><use href="#l-y8v040" x="9.384" y="25.238"/><use href="#l-o9yn4s" x="14.28" y="25.238"/><use href="#l-opah6f" x="15.096" y="25.238" fill="#cf8542"/><use href="#l-opah6f" x="15.912" y="25.238"/><use href="#l-o9yn4s" x="16.728" y="25.238"/><use href="#l-1q9ls40" x="22.44" y="25.238"/><use href="#l-1l3hmiw" x="23.256" y="25.238"/><use href="#l-1l3hmiw" x="26.52" y="25.238"/><use href="#l-1q9ls40" x="27.336" y="25.238"/><use href="#l-y8v040" x="4.488" y="26.054"/><use href="#l-1l3hmiw" x="5.304" y="26.054"/><use href="#l-opah6f" x="6.12" y="26.054"/><use href="#l-opah6f" x="6.936" y="26.054" fill="#cf8542"/><use href="#l-1l3hmiw" x="7.752" y="26.054"/><use href="#l-opah6f" x="8.568" y="26.054"/><use href="#l-opah6f" x="9.384" y="26.054"/><use href="#l-1l3hmiw" x="10.2" y="26.054"/><use href="#l-y8v040" x="11.016" y="26.054"/><use href="#l-1l3hmiw" x="15.096" y="26.054" fill="#cf8542"/><use href="#l-1l3hmiw" x="15.912" y="26.054"/><use href="#l-1q9ls40" x="20.808" y="26.054"/><use href="#l-opah6f" x="21.624" y="26.054"/><use href="#l-opah6f" x="22.44" y="26.054"/><use href="#l-1l3hmiw" x="23.256" y="26.054"/><use href="#l-1l3hmiw" x="24.072" y="26.054"/><use href="#l-1l3hmiw" x="24.888" y="26.054"/><use href="#l-1l3hmiw" x="25.704" y="26.054"/><use href="#l-1l3hmiw" x="26.52" y="26.054"/><use href="#l-opah6f" x="27.336" y="26.054"/><use href="#l-opah6f" x="28.152" y="26.054"/><use href="#l-1l3hmiw" x="28.968" y="26.054"/><use href="#l-y8v040" x="29.784" y="26.054"/><use href="#l-109kef8" x="5.304" y="26.87" fill="#cf8542"/><use href="#l-109kef8" x="6.12" y="26.87"/><use href="#l-109kef8" x="6.936" y="26.87"/><use href="#l-109kef8" x="7.752" y="26.87"/><use href="#l-109kef8" x="8.568" y="26.87"/><use href="#l-109kef8" x="9.384" y="26.87"/><use href="#l-109kef8" x="10.2" y="26.87" fill="#cf8542"/><use href="#l-o9yn4s" x="15.096" y="26.87" fill="#cf8542"/><use href="#l-o9yn4s" x="15.912" y="26.87"/><use href="#l-o9yn4s" x="20.808" y="26.87"/><use href="#l-109kef8" x="21.624" y="26.87"/><use href="#l-109kef8" x="22.44" y="26.87"/><use href="#l-109kef8" x="23.256" y="26.87"/><use href="#l-109kef8" x="24.072" y="26.87"/><use href="#l-109kef8" x="24.888" y="26.87"/><use href="#l-109kef8" x="25.704" y="26.87"/><use href="#l-109kef8" x="26.52" y="26.87"/><use href="#l-109kef8" x="27.336" y="26.87"/><use href="#l-109kef8" x="28.152" y="26.87"/><use href="#l-109kef8" x="28.968" y="26.87"/></g></g></svg>
