<?xml version="1.0" encoding="UTF-8" standalone="no" ?>
<!DOCTYPE svg PUBLIC "-//W3C//DTD SVG 1.1//EN" "http://www.w3.org/Graphics/SVG/1.1/DTD/svg11.dtd">
<svg xmlns="http://www.w3.org/2000/svg" xmlns:xlink="http://www.w3.org/1999/xlink" version="1.1" width="1080" height="1080" viewBox="0 0 1080 1080" xml:space="preserve">
<desc>Created with Fabric.js 5.2.4</desc>
<defs>
</defs>
<g transform="matrix(1 0 0 1 540 540)" id="0dce56c7-2800-48eb-b4f8-7a7085f56a81"  >
</g>
<g transform="matrix(1 0 0 1 540 540)" id="6a690027-7a16-4ccb-a9c3-4b9c3a08ac35"  >
<rect style="stroke: none; stroke-width: 1; stroke-dasharray: none; stroke-linecap: butt; stroke-dashoffset: 0; stroke-linejoin: miter; stroke-miterlimit: 4; fill: rgb(255,255,255); fill-rule: nonzero; opacity: 1; visibility: hidden;" vector-effect="non-scaling-stroke"  x="-540" y="-540" rx="0" ry="0" width="1080" height="1080" />
</g>
<g transform="matrix(15.06 0 0 15.06 539.85 539.85)" id="9d85d1ae-adf0-4c54-be69-2ca4269a420e"  >
<circle style="stroke: rgb(0,0,0); stroke-width: 0; stroke-dasharray: none; stroke-linecap: butt; stroke-dashoffset: 0; stroke-linejoin: miter; stroke-miterlimit: 4; fill: rgb(0,0,0); fill-rule: nonzero; opacity: 1;" vector-effect="non-scaling-stroke"  cx="0" cy="0" r="35" />
</g>
<g transform="matrix(15.06 0 0 15.06 540 540)"  >
<g style="" vector-effect="non-scaling-stroke"   >
		<g transform="matrix(0.02 0 0 -0.02 -19.15 -1.4)"  >
<path style="stroke: rgb(255,255,255); stroke-width: 0; stroke-dasharray: none; stroke-linecap: butt; stroke-dashoffset: 0; stroke-linejoin: miter; stroke-miterlimit: 4; fill: rgb(255,255,255); fill-rule: nonzero; opacity: 1;" vector-effect="non-scaling-stroke"  transform=" translate(-582.5, -327.5)" d="M 28 9 Q 28 37 43 63 Q 58 89 73 90 Q 77 90 83 84 Q 89 78 103 70 Q 117 62 141 57 L 146 57 Q 162 57 178 79 Q 194 101 222 167 Q 266 279 295 371 Q 324 463 334 513 Q 344 563 349 598 Q 354 633 358 651 Q 362 669 371 677 Q 397 705 432 705 Q 442 705 445 699 Q 448 693 452 666 Q 453 661 453 659 Q 475 538 509 405 Q 543 272 568 207 L 574 192 Q 581 178 587 164 Q 593 150 594 150 Q 596 150 635 189 Q 674 228 693 248 Q 765 324 863 438 Q 961 552 1024 626 Q 1087 700 1089 701 Q 1093 705 1100 705 Q 1111 705 1111 682 Q 1111 675 1108 660 Q 1105 645 1099 611 Q 1093 577 1086 540 Q 1041 277 1041 144 Q 1041 98 1044 75 Q 1047 52 1050 48 Q 1053 44 1059 42 Q 1064 41 1075 46 Q 1102 61 1121 61 Q 1137 61 1137 50 Q 1137 28 1087 0 Q 1037 -28 1000 -29 Q 983 -29 972 -23 Q 961 -17 955 -9 Q 949 -1 945 16 Q 941 33 942 45 Q 943 57 941 83 L 941 96 Q 941 158 952 256 Q 963 354 974 422 L 985 489 Q 984 489 939 436 Q 894 383 821 300 Q 748 217 698 164 Q 665 128 620 85 Q 575 42 568 37 Q 564 34 558 34 Q 550 34 546 37 Q 542 40 535 54 Q 512 91 496 127 Q 480 163 450 259 Q 420 355 389 498 L 384 518 Q 349 367 294 223 Q 239 79 198 15 Q 155 -50 117 -50 Q 87 -50 61 -35 Q 35 -20 30 -6 Q 28 2 28 9 Z" stroke-linecap="round" />
</g>
		<g transform="matrix(0.01 0 0 -0.01 -4.24 4.47)"  >
<path style="stroke: rgb(255,255,255); stroke-width: 0; stroke-dasharray: none; stroke-linecap: butt; stroke-dashoffset: 0; stroke-linejoin: miter; stroke-miterlimit: 4; fill: rgb(255,255,255); fill-rule: nonzero; opacity: 1;" vector-effect="non-scaling-stroke"  transform=" translate(-244, -216)" d="M 173 380 Q 173 405 154 405 Q 130 405 104 376 Q 78 347 61 287 Q 60 286 59 284 Q 58 282 58 281 Q 58 280 56 279 Q 54 278 53 278 Q 52 278 49 278 Q 46 278 41 278 L 27 278 Q 21 284 21 287 Q 21 294 29 316 Q 37 338 53 368 Q 69 398 97 419 Q 125 440 160 441 Q 202 441 225 417 Q 248 393 249 361 Q 249 344 246 335 Q 246 329 231 291 Q 216 253 200 202 Q 184 151 182 113 Q 182 86 187 69 Q 200 26 250 26 Q 287 26 319 60 Q 351 94 369 139 Q 387 184 398 222 Q 409 260 409 277 Q 409 300 401 317 Q 393 334 383 343 Q 373 352 365 361 Q 357 370 357 383 Q 357 405 376 424 Q 395 443 417 443 Q 436 443 451 425 Q 466 407 467 367 Q 467 340 455 284 Q 443 228 418 159 Q 393 90 347 40 Q 301 -10 241 -11 Q 177 -11 139 22 Q 102 54 102 117 Q 102 148 110 181 Q 118 214 151 298 Q 173 362 173 380 Z" stroke-linecap="round" />
</g>
		<g transform="matrix(0.02 0 0 -0.02 3.61 0)"  >
<path style="stroke: rgb(255,255,255); stroke-width: 0; stroke-dasharray: none; stroke-linecap: butt; stroke-dashoffset: 0; stroke-linejoin: miter; stroke-miterlimit: 4; fill: rgb(255,255,255); fill-rule: nonzero; opacity: 1;" vector-effect="non-scaling-stroke"  transform=" translate(-213.5, -250)" d="M 94 250 Q 94 319 104 381 Q 114 443 127 488 Q 140 533 164 576 Q 188 619 202 643 Q 216 667 244 695 Q 272 723 277 729 Q 282 735 302 750 L 315 750 L 319 750 Q 333 750 333 741 Q 333 738 316 720 Q 299 702 275 667 Q 251 632 226 581 Q 201 530 184 443 Q 167 356 167 250 Q 167 144 184 58 Q 201 -28 225 -81 Q 249 -134 274 -167 Q 299 -200 316 -220 Q 333 -240 333 -241 Q 333 -250 318 -250 L 315 -250 L 302 -250 L 274 -226 Q 180 -141 137 -14 Q 94 113 94 250 Z" stroke-linecap="round" />
</g>
		<g transform="matrix(0.02 0 0 -0.02 15.32 -1.65)"  >
<path style="stroke: rgb(255,255,255); stroke-width: 0; stroke-dasharray: none; stroke-linecap: butt; stroke-dashoffset: 0; stroke-linejoin: miter; stroke-miterlimit: 4; fill: rgb(255,255,255); fill-rule: nonzero; opacity: 1;" vector-effect="non-scaling-stroke"  transform=" translate(-471.5, -341)" d="M 18 666 Q 18 677 27 680 Q 36 683 73 683 L 146 683 Q 261 683 266 679 L 465 215 Q 469 215 566 443 Q 663 676 668 681 Q 673 683 790 683 L 908 683 L 915 679 Q 924 664 915 655 Q 912 648 897 648 Q 851 639 835 606 L 833 346 Q 833 86 835 79 Q 838 69 849 58 Q 860 47 873 41 Q 877 40 887 38 Q 897 36 901 35 Q 926 35 926 16 Q 926 6 915 -1 L 604 -1 L 597 3 Q 588 19 597 28 Q 600 35 615 35 Q 660 42 673 68 L 679 79 L 679 339 Q 679 409 679 443 Q 679 477 679 520 Q 679 563 679 580 Q 679 597 677 597 Q 646 521 584 375 Q 522 229 473 117 Q 424 5 424 3 Q 416 -1 410 -1 Q 404 -1 401 1 Q 399 3 273 301 L 148 599 L 146 343 Q 146 86 148 79 Q 152 69 163 58 Q 174 47 186 41 Q 190 40 200 38 Q 210 36 215 35 Q 226 35 235 28 Q 244 17 235 3 L 228 -1 L 28 -1 Q 17 4 17 17 Q 17 35 39 35 Q 84 42 97 68 L 104 79 L 104 639 L 88 641 Q 72 644 53 648 Q 34 648 26 651 Q 18 654 18 666 Z M 457 166 Q 451 169 449 171 Q 447 173 435 198 Q 423 223 404 268 Q 385 313 344 412 L 244 648 L 157 648 L 166 637 Q 169 633 293 346 L 413 66 Q 424 88 435 117 L 457 166 Z M 817 646 Q 817 648 766 648 L 715 648 L 715 72 L 708 57 Q 701 45 697 41 L 695 37 Q 695 35 757 35 L 819 35 L 813 46 Q 802 61 800 76 Q 797 105 797 346 L 799 612 L 804 626 Q 812 638 815 641 L 817 646 Z M 124 42 Q 119 42 119 38 Q 119 35 128 35 Q 132 35 132 36 Q 125 42 124 42 Z" stroke-linecap="round" />
</g>
		<g transform="matrix(0.02 0 0 -0.02 27.03 0)"  >
<path style="stroke: rgb(255,255,255); stroke-width: 0; stroke-dasharray: none; stroke-linecap: butt; stroke-dashoffset: 0; stroke-linejoin: miter; stroke-miterlimit: 4; fill: rgb(255,255,255); fill-rule: nonzero; opacity: 1;" vector-effect="non-scaling-stroke"  transform=" translate(-174.5, -250)" d="M 60 749 L 64 750 Q 69 750 74 750 L 86 750 L 114 726 Q 208 641 251 514 Q 294 387 294 250 Q 294 182 284 119 Q 274 56 261 12 Q 248 -32 224 -76 Q 200 -120 186 -143 Q 172 -166 145 -194 Q 118 -222 113 -227 Q 108 -232 90 -246 Q 87 -249 86 -250 L 74 -250 Q 66 -250 63 -250 Q 60 -250 58 -247 Q 56 -244 55 -238 Q 56 -237 66 -225 Q 221 -64 221 250 Q 221 564 66 725 Q 56 737 55 738 Q 55 746 60 749 Z" stroke-linecap="round" />
</g>
</g>
</g>
</svg>